Patient4_TMGait_0pt8_01_right_26_GRF.mot
version=1
nRows=32
nColumns=19
inDegrees=no
endheader
time	F1x	F1y	F1z	M1x	M1y	M1z	F2x	F2y	F2z	M2x	M2y	M2z	EC1x	EC1y	EC1z	EC2x	EC2y	EC2z
29.06	-52.5299	731.7585	70.9739	-229.306	-90.2869	838.9459	14.5432	6.8941	-14.6406	6.1988	9.0787	3.8964	-0.0592	0.0182	-0.0073	-0.0462	0.0165	0.9585
29.0713	-43.6492	739.4047	68.3485	-231.7956	-85.4159	843.5617	9.4887	5.8424	-9.9842	4.6451	6.3526	4.1196	-0.0592	0.0182	-0.0073	-0.0462	0.0165	0.9585
29.0826	-35.2309	747.278	65.7946	-234.4313	-80.5165	847.3845	5.2991	4.9686	-6.0108	3.3336	3.9971	4.3057	-0.0592	0.0182	-0.0073	-0.0462	0.0165	0.9585
29.0939	-27.5012	754.5202	63.3661	-236.9766	-75.6938	849.527	2.1639	4.3341	-2.9657	2.3449	2.1717	4.4778	-0.0592	0.0182	-0.0073	-0.0462	0.0165	0.9585
29.1051	-20.3885	760.3469	61.0815	-239.2123	-70.9701	849.2475	0.055121	3.919	-0.85	1.6721	0.88544	4.6066	-0.0592	0.0182	-0.0073	-0.0462	0.0165	0.9585
29.1164	-13.665	764.1083	58.8901	-240.9537	-66.276	845.9626	-1.214	3.6978	0.45331	1.27	0.088503	4.7189	-0.0592	0.0182	-0.0073	-0.0462	0.0165	0.9585
29.1277	-7.1033	765.42	56.7388	-242.0789	-61.5463	839.4293	-1.8505	3.579	1.1217	1.0621	-0.31699	4.7525	-0.0592	0.0182	-0.0073	-0.0462	0.0165	0.9585
29.139	-0.52778	764.1651	54.6225	-242.5309	-56.768	829.685	-2.0766	3.4941	1.3408	0.97205	-0.43059	4.6869	-0.0592	0.0182	-0.0073	-0.0462	0.0165	0.9585
29.1503	6.1323	760.5261	52.5454	-242.3271	-51.9606	817.1344	-2.0413	3.3144	1.256	0.91202	-0.33741	4.4067	-0.0592	0.0182	-0.0073	-0.0462	0.0165	0.9585
29.1616	12.8766	754.953	50.592	-241.5513	-47.2276	802.4659	-1.8976	2.9601	0.99992	0.81051	-0.1129	3.865	-0.0592	0.0182	-0.0073	-0.0462	0.0165	0.9585
29.1729	19.5997	748.1503	48.8329	-240.3617	-42.6848	786.6254	-1.6982	2.3041	0.6505	0.59181	0.18943	2.9294	-0.0592	0.0182	-0.0073	-0.0462	0.0165	0.9585
29.1841	26.1987	741.0388	47.4193	-238.9823	-38.5199	770.7493	-1.5218	1.2512	0.27259	0.19775	0.52753	1.5135	-0.0592	0.0182	-0.0073	-0.0462	0.0165	0.9585
29.1954	32.5432	734.6382	46.4846	-237.6734	-34.9114	756.036	-1.3441	-0.29225	-0.084944	-0.41735	0.84284	-0.5054	-0.0592	0.0182	-0.0073	-0.0462	0.0165	0.9585
29.2067	38.5348	729.8905	46.2022	-236.6798	-32.0637	743.5386	-1.1694	-2.3269	-0.37417	-1.2582	1.077	-3.105	-0.0592	0.0182	-0.0073	-0.0462	0.0165	0.9585
29.218	44.0774	727.5394	46.6904	-236.1967	-30.1199	734.0785	-0.93575	-4.7635	-0.5433	-2.2785	1.1453	-6.1869	-0.0592	0.0182	-0.0073	-0.0462	0.0165	0.9585
29.2293	49.0986	727.956	48.023	-236.3147	-29.1747	728.039	-0.63948	-7.274	-0.52526	-3.3339	0.95216	-9.3303	-0.0592	0.0182	-0.0073	-0.0462	0.0165	0.9585
29.2406	53.5256	731.0871	50.232	-236.9979	-29.2878	725.3781	-0.21828	-9.2951	-0.21799	-4.1675	0.34794	-11.8414	-0.0592	0.0182	-0.0073	-0.0462	0.0165	0.9585
29.2519	57.3341	736.4387	53.2597	-238.0895	-30.4186	725.5855	0.30605	-9.8317	0.48956	-4.3494	-0.80993	-12.4576	-0.0592	0.0182	-0.0073	-0.0462	0.0165	0.9585
29.2631	60.5005	743.2312	56.9796	-239.3599	-32.4579	727.866	0.94612	-7.4736	1.7334	-3.266	-2.6867	-9.4304	-0.0592	0.0182	-0.0073	-0.0462	0.0165	0.9585
29.2744	63.0989	750.4886	61.1441	-240.5406	-35.1517	731.1916	1.5975	-0.30181	3.6273	-0.098469	-5.381	-0.34436	-0.0592	0.0182	-0.0073	-0.0462	0.0165	0.9585
29.2857	65.1986	757.1099	65.435	-241.3412	-38.1754	734.4228	2.155	13.9563	6.2274	6.1178	-8.89	17.6359	-0.0592	0.0182	-0.0073	-0.0462	0.0165	0.9585
29.297	66.936	761.8661	69.4486	-241.4495	-41.1038	736.2708	2.3515	37.6958	9.465	16.3802	-12.9842	47.5436	-0.0592	0.0182	-0.0073	-0.0462	0.0165	0.9585
29.3083	68.4455	763.4081	72.7503	-240.5265	-43.4793	735.3808	1.8759	72.8325	13.0344	31.4705	-17.1062	91.7964	-0.0592	0.0182	-0.0073	-0.0462	0.0165	0.9585
29.3196	69.8766	760.2237	74.9122	-238.192	-44.8541	730.213	0.21218	119.9993	16.2915	51.5959	-20.202	151.2165	-0.0592	0.0182	-0.0073	-0.0462	0.0165	0.9585
29.3309	71.2795	750.6962	75.5038	-234.0328	-44.8121	719.1763	-3.3068	177.3596	18.225	75.8917	-20.7033	223.4769	-0.0592	0.0182	-0.0073	-0.0462	0.0165	0.9585
29.3421	72.6064	733.1938	74.1954	-227.6192	-43.0768	700.6676	-9.3325	239.453	17.5579	101.954	-16.7759	301.689	-0.0592	0.0182	-0.0073	-0.0462	0.0165	0.9585
29.3534	73.5777	706.2514	70.8114	-218.5488	-39.59	673.2919	-17.4309	297.711	13.1823	126.1687	-7.4571	374.9339	-0.0592	0.0182	-0.0073	-0.0462	0.0165	0.9585
29.3647	73.8133	668.9106	65.4402	-206.5403	-34.578	636.1734	-26.1904	345.8937	5.6683	145.9725	5.8297	435.1491	-0.0592	0.0182	-0.0073	-0.0462	0.0165	0.9585
29.376	72.8394	621.2074	58.3889	-191.5752	-28.4877	589.4579	-34.5986	383.5284	-3.3683	161.1828	20.7161	481.588	-0.0592	0.0182	-0.0073	-0.0462	0.0165	0.9585
29.3873	70.3068	564.148	50.1926	-173.9127	-21.9252	534.191	-41.6105	413.0519	-13.0526	172.8673	35.6565	517.2003	-0.0592	0.0182	-0.0073	-0.0462	0.0165	0.9585
29.3986	66.0268	499.7927	41.4385	-154.1208	-15.4756	472.4206	-46.7059	437.8947	-22.082	182.5361	48.8842	546.2995	-0.0592	0.0182	-0.0073	-0.0462	0.0165	0.9585
29.4099	59.9661	430.9723	32.683	-133.0048	-9.6297	406.838	-49.4713	461.1474	-29.6879	191.5313	59.3133	572.7497	-0.0592	0.0182	-0.0073	-0.0462	0.0165	0.9585
